<?xml version="1.0" encoding="utf-8"?>
<!-- Generator: Adobe Illustrator 16.0.4, SVG Export Plug-In . SVG Version: 6.00 Build 0)  -->
<!DOCTYPE svg PUBLIC "-//W3C//DTD SVG 1.1//EN" "http://www.w3.org/Graphics/SVG/1.1/DTD/svg11.dtd">
<svg version="1.1" xmlns="http://www.w3.org/2000/svg" xmlns:xlink="http://www.w3.org/1999/xlink" x="0px" y="0px"
	 width="64.233px" height="67.5px" viewBox="0 0 64.233 67.5" enable-background="new 0 0 64.233 67.5" xml:space="preserve">
<g id="Layer_1">
</g>
<g id="Layer_2" display="none">
	<rect x="59.712" y="99.479" display="inline" fill="#1D1D1B" width="1.819" height="2.92"/>
	
		<rect x="51.072" y="76.741" transform="matrix(0.5879 0.809 -0.809 0.5879 87.2403 -8.6789)" display="inline" fill="#1D1D1B" width="2.131" height="9.08"/>
	<rect x="44.651" y="77.542" display="inline" fill="#1D1D1B" width="19.83" height="2.131"/>
	<rect x="43.552" y="103.676" display="inline" fill="#1D1D1B" width="9.213" height="2.131"/>
	<rect x="47.093" y="77.542" display="inline" fill="#1D1D1B" width="2.131" height="27.784"/>
	<rect x="56.499" y="99.463" display="inline" fill="#1D1D1B" width="1.819" height="2.918"/>
	
		<rect x="57.935" y="95.07" transform="matrix(-0.8089 -0.5879 0.5879 -0.8089 48.9681 211.4502)" display="inline" fill="#1D1D1B" width="1.821" height="5.394"/>
	<rect x="59.704" y="95.086" display="inline" fill="#1D1D1B" width="1.819" height="7.262"/>
	<polygon display="inline" fill="#1D1D1B" points="54.35,90.768 59.669,90.768 59.669,94.4 61.488,94.4 61.488,90.768 
		66.813,90.768 66.813,88.949 54.35,88.949 	"/>
	<path display="inline" fill="#1D1D1B" d="M64.463,84.693l-2.628-3.617l-0.021,0.016V81.06h-2.472v0.033l-0.014-0.01L56.7,84.7
		l-0.017,0.013l0.004,0.005l-0.004,0.006l0.017,0.013l2.628,3.617l0.014-0.01v0.01h2.472v-0.022l0.021,0.015l2.628-3.617
		l0.018-0.013l-0.005-0.006l0.005-0.006L64.463,84.693z M60.902,86.535h-0.647l-1.319-1.816l1.337-1.839h0.623l1.332,1.833
		L60.902,86.535z"/>
</g>
<g id="Layer_4">
	<polygon fill="#1D1D1B" points="189.763,219.394 177.272,219.394 177.272,172.646 161.608,172.646 161.608,219.394 
		161.584,219.394 161.584,235.058 161.608,235.058 161.608,235.194 177.272,235.194 177.272,235.058 189.763,235.058 
		189.763,235.335 205.496,235.335 205.496,172.509 189.763,172.509 	"/>
	<polygon fill="#1D1D1B" points="469.298,172.216 454.267,192.905 454.267,172.243 438.603,172.243 438.603,234.79 454.267,234.79 
		454.267,219.554 481.971,181.423 	"/>
	<path fill="#1D1D1B" d="M-161.721,173.31l-0.157,0.115H-174h-15.664v15.662v46.855H-174v-15.535h34.862V204.8l0.194-0.141
		L-161.721,173.31z M-174,189.087h4.38l11.375,15.656H-174V189.087z"/>
	<polygon fill="#1D1D1B" points="524.521,219.509 518.518,211.247 539.868,181.86 527.196,172.653 527.011,172.909 527.011,172.769 
		499.188,172.769 499.188,188.433 515.732,188.433 499.278,211.079 499.119,211.194 516.519,235.144 516.527,235.138 
		516.527,235.171 539.996,235.171 539.996,219.509 	"/>
	<rect x="222.979" y="77.521" fill="#1D1D1B" width="15.664" height="62.547"/>
	<polygon fill="#1D1D1B" points="377.362,125.107 363.299,125.107 363.299,78.224 347.635,78.224 347.635,140.771 355.467,140.771 
		363.299,140.771 377.362,140.771 	"/>
	<polygon fill="#1D1D1B" points="264.676,124.543 250.612,124.543 250.612,140.207 264.676,140.207 272.508,140.207 280.34,140.207 
		280.34,77.661 264.676,77.661 	"/>
	<polygon fill="#1D1D1B" points="102.74,188.171 116.778,188.171 116.778,235.333 132.442,235.333 132.442,188.171 146.531,188.171 
		146.531,172.507 102.74,172.507 	"/>
	<polygon fill="#1D1D1B" points="309.263,119.406 324.294,140.096 336.967,130.889 320.914,108.795 336.967,86.701 324.294,77.494 
		309.263,98.184 309.263,77.521 293.599,77.521 293.599,140.068 309.263,140.068 	"/>
	<polygon fill="#1D1D1B" points="132.581,125.578 128.2,125.578 116.922,110.057 128.326,94.359 138.198,94.359 138.198,78.696 
		120.421,78.696 120.421,78.842 120.302,78.755 97.675,109.898 97.525,110.008 97.561,110.057 97.525,110.105 97.675,110.213 
		120.302,141.357 120.459,141.242 148.245,141.242 148.245,125.578 148.245,110.248 132.581,110.248 	"/>
	<path fill="#1D1D1B" d="M-198.409,205.212l-22.627-31.143l-0.182,0.131v-0.273h-21.278v0.289l-0.12-0.088l-22.627,31.145
		l-0.15,0.107l0.035,0.049l-0.035,0.049l0.15,0.109l22.627,31.143l0.12-0.086v0.086h21.278v-0.191l0.182,0.133l22.627-31.145
		l0.15-0.107l-0.036-0.049l0.036-0.049L-198.409,205.212z M-229.06,221.065h-5.575l-11.361-15.637l11.507-15.838h5.37l11.463,15.779
		L-229.06,221.065z"/>
	<path fill="#1D1D1B" d="M-63.441,204.647l-22.627-31.143l-0.182,0.133v-0.273h-21.278v0.287l-0.12-0.088l-22.627,31.145
		l-0.15,0.109l0.035,0.049l-0.035,0.047l0.15,0.109l22.627,31.145l0.12-0.088v0.088h21.278v-0.193l0.182,0.133l4.877-6.713
		l5.227,7.193l12.672-9.207l-8.218-11.311l8.068-11.105l0.15-0.109l-0.036-0.049l0.036-0.049L-63.441,204.647z M-99.667,220.503
		l-11.361-15.637l11.506-15.838h5.37l11.463,15.777l-11.404,15.697H-99.667z"/>
	<polygon fill="#1D1D1B" points="32.905,43.92 46.993,43.92 46.993,28.256 32.905,28.256 32.905,20.338 46.993,20.338 46.993,4.674 
		21.479,4.674 21.479,4.954 17.241,4.954 17.241,67.5 32.905,67.5 	"/>
	<polygon fill="#1D1D1B" points="173.879,117.33 187.967,117.33 187.967,140.91 203.631,140.91 203.631,78.364 187.967,78.364 
		187.967,101.666 173.879,101.666 173.879,78.364 158.215,78.364 158.215,140.91 173.879,140.91 	"/>
	<path fill="#1D1D1B" d="M8.451,173.862L8.3,174.069h-24.511h-15.664v15.664v46.854h15.664v-2.131l11.514-15.848l13.062,17.979
		l12.672-9.207L4.983,205.284l16.14-22.215L8.451,173.862z M-16.211,189.733h13.131l-13.131,18.074V189.733z"/>
	<polygon fill="#1D1D1B" points="408.988,171.982 395.584,190.431 382.18,171.982 369.508,181.188 385.903,203.755 369.143,226.823 
		381.814,236.03 395.584,217.079 408.622,235.024 421.295,225.817 405.265,203.755 421.66,181.188 	"/>
	<polygon fill="#1D1D1B" points="252.178,209.073 240.243,192.647 240.243,172.509 224.579,172.509 224.579,197.644 
		225.354,197.644 224.803,198.044 252.109,235.628 252.533,235.321 267.842,235.321 267.842,172.804 252.178,172.804 	"/>
	<polygon fill="#1D1D1B" points="429.156,105.621 441.09,122.045 441.09,142.184 456.754,142.184 456.754,117.051 455.979,117.051 
		456.531,116.648 429.225,79.065 428.803,79.372 413.492,79.372 413.492,95.633 401.559,79.207 401.135,79.514 385.826,79.514 
		385.826,142.031 401.49,142.031 401.49,105.762 413.425,122.188 413.425,142.326 429.089,142.326 429.089,141.889 429.156,141.889 
			"/>
	<polygon fill="#1D1D1B" points="514.279,141.889 514.279,79.372 498.615,79.372 498.615,95.633 486.682,79.207 486.258,79.514 
		470.949,79.514 470.949,142.031 486.613,142.031 486.613,105.762 498.615,122.281 498.615,141.889 	"/>
	<path fill="#1D1D1B" d="M-128.665-42.25l0.151-0.209h24.512h15.664v-15.664v-46.853h-15.664v2.131l-37.335,51.388L-128.665-42.25z
		 M-104.002-58.123h-13.131l13.131-18.074V-58.123z"/>
</g>
<g id="Layer_3" display="none">
	<rect x="59.712" y="99.479" display="inline" fill="#1D1D1B" width="1.819" height="2.92"/>
	
		<rect x="51.072" y="76.741" transform="matrix(0.5879 0.809 -0.809 0.5879 87.2403 -8.6789)" display="inline" fill="#1D1D1B" width="2.131" height="9.08"/>
	<rect x="44.651" y="77.542" display="inline" fill="#1D1D1B" width="19.83" height="2.131"/>
	<rect x="43.552" y="103.676" display="inline" fill="#1D1D1B" width="9.213" height="2.131"/>
	<rect x="47.093" y="77.542" display="inline" fill="#1D1D1B" width="2.131" height="27.784"/>
	<rect x="56.499" y="99.463" display="inline" fill="#1D1D1B" width="1.819" height="2.918"/>
	
		<rect x="57.935" y="95.07" transform="matrix(-0.8089 -0.5879 0.5879 -0.8089 48.9681 211.4502)" display="inline" fill="#1D1D1B" width="1.821" height="5.394"/>
	<rect x="59.704" y="95.086" display="inline" fill="#1D1D1B" width="1.819" height="7.262"/>
	<polygon display="inline" fill="#1D1D1B" points="54.35,90.768 59.669,90.768 59.669,94.4 61.488,94.4 61.488,90.768 
		66.813,90.768 66.813,88.949 54.35,88.949 	"/>
	<path display="inline" fill="#1D1D1B" d="M64.463,84.693l-2.628-3.617l-0.021,0.016V81.06h-2.472v0.033l-0.014-0.01L56.7,84.7
		l-0.017,0.013l0.004,0.005l-0.004,0.006l0.017,0.013l2.628,3.617l0.014-0.01v0.01h2.472v-0.022l0.021,0.015l2.628-3.617
		l0.018-0.013l-0.005-0.006l0.005-0.006L64.463,84.693z M60.902,86.535h-0.647l-1.319-1.816l1.337-1.839h0.623l1.332,1.833
		L60.902,86.535z"/>
</g>
</svg>
