<?xml version="1.0" encoding="utf-8"?>
<!-- Generator: Adobe Illustrator 16.0.4, SVG Export Plug-In . SVG Version: 6.00 Build 0)  -->
<!DOCTYPE svg PUBLIC "-//W3C//DTD SVG 1.1//EN" "http://www.w3.org/Graphics/SVG/1.1/DTD/svg11.dtd">
<svg version="1.1" xmlns="http://www.w3.org/2000/svg" xmlns:xlink="http://www.w3.org/1999/xlink" x="0px" y="0px"
	 width="74.984px" height="67.5px" viewBox="0 0 74.984 67.5" enable-background="new 0 0 74.984 67.5" xml:space="preserve">
<g id="Layer_1">
</g>
<g id="Layer_2" display="none">
	<rect x="59.712" y="99.479" display="inline" fill="#1D1D1B" width="1.819" height="2.92"/>
	
		<rect x="51.072" y="76.741" transform="matrix(0.5879 0.809 -0.809 0.5879 87.2403 -8.6789)" display="inline" fill="#1D1D1B" width="2.131" height="9.08"/>
	<rect x="44.651" y="77.542" display="inline" fill="#1D1D1B" width="19.83" height="2.131"/>
	<rect x="43.552" y="103.676" display="inline" fill="#1D1D1B" width="9.213" height="2.131"/>
	<rect x="47.093" y="77.542" display="inline" fill="#1D1D1B" width="2.131" height="27.784"/>
	<rect x="56.499" y="99.463" display="inline" fill="#1D1D1B" width="1.819" height="2.918"/>
	
		<rect x="57.935" y="95.07" transform="matrix(-0.8089 -0.5879 0.5879 -0.8089 48.9681 211.4502)" display="inline" fill="#1D1D1B" width="1.821" height="5.394"/>
	<rect x="59.704" y="95.086" display="inline" fill="#1D1D1B" width="1.819" height="7.262"/>
	<polygon display="inline" fill="#1D1D1B" points="54.35,90.768 59.669,90.768 59.669,94.4 61.488,94.4 61.488,90.768 
		66.813,90.768 66.813,88.949 54.35,88.949 	"/>
	<path display="inline" fill="#1D1D1B" d="M64.463,84.693l-2.628-3.617l-0.021,0.016V81.06h-2.472v0.033l-0.014-0.01L56.7,84.7
		l-0.017,0.013l0.004,0.005l-0.004,0.006l0.017,0.013l2.628,3.617l0.014-0.01v0.01h2.472v-0.022l0.021,0.015l2.628-3.617
		l0.018-0.013l-0.005-0.006l0.005-0.006L64.463,84.693z M60.902,86.535h-0.647l-1.319-1.816l1.337-1.839h0.623l1.332,1.833
		L60.902,86.535z"/>
</g>
<g id="Layer_4">
	<polygon fill="#1D1D1B" points="189.763,219.394 177.272,219.394 177.272,172.646 161.608,172.646 161.608,219.394 
		161.584,219.394 161.584,235.058 161.608,235.058 161.608,235.194 177.272,235.194 177.272,235.058 189.763,235.058 
		189.763,235.335 205.496,235.335 205.496,172.509 189.763,172.509 	"/>
	<polygon fill="#1D1D1B" points="469.298,172.216 454.267,192.905 454.267,172.243 438.603,172.243 438.603,234.79 454.267,234.79 
		454.267,219.554 481.971,181.423 	"/>
	<polygon fill="#1D1D1B" points="524.521,219.509 518.518,211.247 539.868,181.86 527.196,172.653 527.011,172.909 527.011,172.769 
		499.188,172.769 499.188,188.433 515.732,188.433 499.278,211.079 499.119,211.194 516.519,235.144 516.527,235.138 
		516.527,235.171 539.996,235.171 539.996,219.509 	"/>
	<polygon fill="#1D1D1B" points="102.74,188.171 116.778,188.171 116.778,235.333 132.442,235.333 132.442,188.171 146.531,188.171 
		146.531,172.507 102.74,172.507 	"/>
	<path fill="#1D1D1B" d="M51.319,4.775l-0.151,0.207H26.657H10.993v15.664V67.5h15.664v-2.131l11.514-15.848L51.233,67.5
		l12.672-9.207L47.852,36.197l16.14-22.215L51.319,4.775z M26.657,20.646h13.131L26.657,38.721V20.646z"/>
	<polygon fill="#1D1D1B" points="408.988,171.982 395.584,190.431 382.18,171.982 369.508,181.188 385.903,203.755 369.143,226.823 
		381.814,236.03 395.584,217.079 408.622,235.024 421.295,225.817 405.265,203.755 421.66,181.188 	"/>
	<polygon fill="#1D1D1B" points="252.178,209.073 240.243,192.647 240.243,172.509 224.579,172.509 224.579,197.644 
		225.354,197.644 224.803,198.044 252.109,235.628 252.533,235.321 267.842,235.321 267.842,172.804 252.178,172.804 	"/>
	<path fill="#1D1D1B" d="M-128.665-42.25l0.151-0.209h24.512h15.664v-15.664v-46.853h-15.664v2.131l-37.335,51.388L-128.665-42.25z
		 M-104.002-58.123h-13.131l13.131-18.074V-58.123z"/>
</g>
<g id="Layer_3" display="none">
	<rect x="59.712" y="99.479" display="inline" fill="#1D1D1B" width="1.819" height="2.92"/>
	
		<rect x="51.072" y="76.741" transform="matrix(0.5879 0.809 -0.809 0.5879 87.2403 -8.6789)" display="inline" fill="#1D1D1B" width="2.131" height="9.08"/>
	<rect x="44.651" y="77.542" display="inline" fill="#1D1D1B" width="19.83" height="2.131"/>
	<rect x="43.552" y="103.676" display="inline" fill="#1D1D1B" width="9.213" height="2.131"/>
	<rect x="47.093" y="77.542" display="inline" fill="#1D1D1B" width="2.131" height="27.784"/>
	<rect x="56.499" y="99.463" display="inline" fill="#1D1D1B" width="1.819" height="2.918"/>
	
		<rect x="57.935" y="95.07" transform="matrix(-0.8089 -0.5879 0.5879 -0.8089 48.9681 211.4502)" display="inline" fill="#1D1D1B" width="1.821" height="5.394"/>
	<rect x="59.704" y="95.086" display="inline" fill="#1D1D1B" width="1.819" height="7.262"/>
	<polygon display="inline" fill="#1D1D1B" points="54.35,90.768 59.669,90.768 59.669,94.4 61.488,94.4 61.488,90.768 
		66.813,90.768 66.813,88.949 54.35,88.949 	"/>
	<path display="inline" fill="#1D1D1B" d="M64.463,84.693l-2.628-3.617l-0.021,0.016V81.06h-2.472v0.033l-0.014-0.01L56.7,84.7
		l-0.017,0.013l0.004,0.005l-0.004,0.006l0.017,0.013l2.628,3.617l0.014-0.01v0.01h2.472v-0.022l0.021,0.015l2.628-3.617
		l0.018-0.013l-0.005-0.006l0.005-0.006L64.463,84.693z M60.902,86.535h-0.647l-1.319-1.816l1.337-1.839h0.623l1.332,1.833
		L60.902,86.535z"/>
</g>
</svg>
