<?xml version="1.0" encoding="utf-8"?>
<!-- Generator: Adobe Illustrator 16.0.4, SVG Export Plug-In . SVG Version: 6.00 Build 0)  -->
<!DOCTYPE svg PUBLIC "-//W3C//DTD SVG 1.1//EN" "http://www.w3.org/Graphics/SVG/1.1/DTD/svg11.dtd">
<svg version="1.1" id="Layer_1" xmlns="http://www.w3.org/2000/svg" xmlns:xlink="http://www.w3.org/1999/xlink" x="0px" y="0px"
	 width="28.35px" height="28.35px" viewBox="0 0 28.35 28.35" enable-background="new 0 0 28.35 28.35" xml:space="preserve">
<path fill="#1D1D1B" d="M25.972,1.751H2.355L1.537,2.569v23.617l0.817,0.817h23.617l0.817-0.817v-0.849v-8.173V2.569L25.972,1.751z
	 M14.868,18.393l0.216-0.003l3.728-0.506l-0.101-1.587h1.686v2.332l-6.463,0.034L8.82,18.741v-2.444h1.694l-0.104,1.519
	L14.868,18.393z M22.365,18.618l-0.333,0.003v-3.141l-0.818-0.818H8.002l-0.817,0.818v3.287l-1.699,0.025l-2.068-2.19l-0.245,0.09
	V9.933h1.806v2.773l0.817,0.817h7.614l0.816-0.817V9.593h0.763v3.114l0.818,0.817h7.612l0.817-0.817V9.933h0.917v6.797
	L22.365,18.618z M22.604,9.933v1.956h-5.979V9.593V9.139h5.979V9.933z M12.592,9.593v2.296H6.614v-2.75h5.978V9.593z M25.155,3.386
	v4.913h-0.938L23.42,7.504h-7.612l-0.454,0.454h-1.49L13.41,7.504H5.796L5.001,8.299H3.173V3.386H25.155z"/>
</svg>
