<?xml version="1.0" encoding="utf-8"?>
<!-- Generator: Adobe Illustrator 16.0.4, SVG Export Plug-In . SVG Version: 6.00 Build 0)  -->
<!DOCTYPE svg PUBLIC "-//W3C//DTD SVG 1.1//EN" "http://www.w3.org/Graphics/SVG/1.1/DTD/svg11.dtd">
<svg version="1.1" id="Layer_1" xmlns="http://www.w3.org/2000/svg" xmlns:xlink="http://www.w3.org/1999/xlink" x="0px" y="0px"
	 width="28.35px" height="28.35px" viewBox="0 0 28.35 28.35" enable-background="new 0 0 28.35 28.35" xml:space="preserve">
<g>
	<line fill="#1D1D1B" x1="21.686" y1="12.353" x2="17.557" y2="12.353"/>
	<rect x="16.737" y="11.533" fill="#1D1D1B" width="5.769" height="1.638"/>
</g>
<g>
	<polygon fill="#1D1D1B" points="10.544,19.964 15.015,20.543 18.751,20.033 	"/>
	<polygon fill="#1D1D1B" points="14.908,21.355 10.439,20.778 10.551,19.146 18.758,19.215 18.862,20.845 15.124,21.355 	"/>
</g>
<g>
	<path fill="#1D1D1B" d="M26.006,27.085H2.343l-0.819-0.82V2.601l0.819-0.819h23.664l0.819,0.819v23.664L26.006,27.085z
		 M3.161,25.446h22.025V3.42H3.161V25.446z"/>
</g>
<g>
	<line fill="#1D1D1B" x1="10.946" y1="13.003" x2="7.352" y2="11.701"/>
	
		<rect x="6.418" y="11.533" transform="matrix(0.9402 0.3406 -0.3406 0.9402 4.7544 -2.3776)" fill="#1D1D1B" width="5.462" height="1.639"/>
</g>
</svg>
