<?xml version="1.0" encoding="utf-8"?>
<!-- Generator: Adobe Illustrator 16.0.4, SVG Export Plug-In . SVG Version: 6.00 Build 0)  -->
<!DOCTYPE svg PUBLIC "-//W3C//DTD SVG 1.1//EN" "http://www.w3.org/Graphics/SVG/1.1/DTD/svg11.dtd">
<svg version="1.1" id="Layer_1" xmlns="http://www.w3.org/2000/svg" xmlns:xlink="http://www.w3.org/1999/xlink" x="0px" y="0px"
	 width="28.35px" height="28.35px" viewBox="0 0 28.35 28.35" enable-background="new 0 0 28.35 28.35" xml:space="preserve">
<g>
	<path fill="#1D1D1B" d="M26.792,2.822l0.017-0.207l-0.815-0.876H2.355L1.537,2.548v0.293v5.374v18.02l0.818,0.81h23.638l0.818-0.81
		V2.841L26.792,2.822z M4.868,10.946H3.173V8.531l4.309-4.623l6.516,4.498l0.221,0.108l5.258,1.644h-3.794l-0.454,0.45h-1.492
		l-0.454-0.45h-7.62L4.868,10.946z M6.481,11.777h5.984v0.45v2.276H6.481V11.777z M16.501,12.227v-0.45h5.984v0.788v1.938h-5.984
		V12.227z M3.173,25.426V12.565h1.672v2.747l0.817,0.81h7.62l0.817-0.81v-3.085h0.764v3.085l0.818,0.81h7.621l0.816-0.81v-2.747
		h1.057v12.861H3.173z"/>
	<polygon fill="#1D1D1B" points="15.672,19.717 14.153,20.513 12.587,19.785 11.827,19.82 9.288,21.29 9.427,22.751 13.899,24.33 
		14.459,24.326 18.933,22.681 19.058,21.222 16.466,19.734 	"/>
</g>
</svg>
