<?xml version="1.0" encoding="utf-8"?>
<!-- Generator: Adobe Illustrator 16.0.4, SVG Export Plug-In . SVG Version: 6.00 Build 0)  -->
<!DOCTYPE svg PUBLIC "-//W3C//DTD SVG 1.1//EN" "http://www.w3.org/Graphics/SVG/1.1/DTD/svg11.dtd">
<svg version="1.1" xmlns="http://www.w3.org/2000/svg" xmlns:xlink="http://www.w3.org/1999/xlink" x="0px" y="0px" width="28.35px"
	 height="28.35px" viewBox="0 0 28.35 28.35" enable-background="new 0 0 28.35 28.35" xml:space="preserve">
<g id="Layer_1">
	<polygon fill="#1D1D1B" points="89.556,29.962 88.196,29.962 88.196,24.874 86.492,24.874 86.492,29.962 86.489,29.962 
		86.489,31.667 86.492,31.667 86.492,31.682 88.196,31.682 88.196,31.667 89.556,31.667 89.556,31.696 91.269,31.696 91.269,24.859 
		89.556,24.859 	"/>
	<polygon fill="#1D1D1B" points="119.979,24.827 118.344,27.079 118.344,24.83 116.639,24.83 116.639,31.638 118.344,31.638 
		118.344,29.979 121.358,25.829 	"/>
	<path fill="#1D1D1B" d="M51.303,24.946l-0.018,0.013h-1.319h-1.704v1.704v5.1h1.704v-1.69h3.795v-1.699l0.021-0.015L51.303,24.946z
		 M49.966,26.663h0.478l1.237,1.704h-1.715V26.663z"/>
	<polygon fill="#1D1D1B" points="125.989,29.975 125.336,29.075 127.66,25.877 126.28,24.875 126.261,24.902 126.261,24.888 
		123.232,24.888 123.232,26.592 125.033,26.592 123.242,29.057 123.226,29.069 125.119,31.676 125.119,31.675 125.119,31.679 
		127.674,31.679 127.674,29.975 	"/>
	<rect x="93.172" y="14.521" fill="#1D1D1B" width="1.704" height="6.807"/>
	<polygon fill="#1D1D1B" points="109.974,19.7 108.443,19.7 108.443,14.598 106.738,14.598 106.738,21.405 107.591,21.405 
		108.443,21.405 109.974,21.405 	"/>
	<polygon fill="#1D1D1B" points="97.709,19.639 96.179,19.639 96.179,21.344 97.709,21.344 98.562,21.344 99.414,21.344 
		99.414,14.536 97.709,14.536 	"/>
	<polygon fill="#1D1D1B" points="80.085,26.563 81.613,26.563 81.613,31.696 83.317,31.696 83.317,26.563 84.851,26.563 
		84.851,24.858 80.085,24.858 	"/>
	<polygon fill="#1D1D1B" points="102.562,19.08 104.198,21.331 105.577,20.329 103.83,17.925 105.577,15.52 104.198,14.518 
		102.562,16.771 102.562,14.521 100.857,14.521 100.857,21.328 102.562,21.328 	"/>
	<polygon fill="#1D1D1B" points="56.956,21.327 58.919,21.327 58.919,19.632 57.831,19.632 56.604,17.942 57.845,16.233 
		58.919,16.233 58.919,14.529 56.98,14.522 54.492,17.937 54.496,17.942 	"/>
	<polygon fill="#1D1D1B" points="14.715,18.14 14.699,18.151 14.703,18.157 14.699,18.163 14.715,18.175 17.178,21.563 
		17.194,21.552 19.126,21.552 19.126,19.847 18.037,19.847 17.451,19.04 18.074,19.04 18.074,17.335 17.407,17.335 18.051,16.448 
		19.126,16.448 19.126,14.743 17.178,14.75 	"/>
	<polygon fill="#1D1D1B" points="22.268,10.187 22.252,10.199 22.256,10.205 22.252,10.21 22.268,10.222 24.73,13.611 
		24.747,13.599 26.679,13.599 26.679,11.894 25.59,11.894 25.004,11.087 25.627,11.087 25.627,9.382 24.96,9.382 25.604,8.496 
		26.679,8.496 26.679,6.791 24.73,6.798 	"/>
	<polygon fill="#1D1D1B" points="5.986,11.89 5.509,11.89 4.281,10.201 5.523,8.492 6.598,8.492 6.598,6.787 4.662,6.787 
		4.662,6.803 4.649,6.794 2.187,10.183 2.171,10.195 2.175,10.201 2.171,10.206 2.187,10.217 4.649,13.607 4.667,13.594 
		7.691,13.594 7.691,11.89 7.691,10.221 5.986,10.221 	"/>
	<path fill="#1D1D1B" d="M66.292,18.075l-0.003-0.005l0.003-0.006l-0.016-0.012l-2.463-3.39l-0.013,0.009v-0.016h-3.028v5.103v1.704
		h3.023l0.018,0.013l2.463-3.39L66.292,18.075z M62.954,19.76h-0.477v-3.398h0.463l1.241,1.709L62.954,19.76z"/>
	<path fill="#1D1D1B" d="M8.961,18.165l-2.463-3.39l-0.02,0.015V14.76H4.163v0.031l-0.014-0.01l-2.462,3.389l-0.017,0.012
		l0.004,0.006l-0.004,0.006l0.017,0.012l2.462,3.389l0.014-0.01v0.01h2.315v-0.02l0.02,0.014l2.463-3.391l0.017-0.012l-0.004-0.004
		l0.004-0.006L8.961,18.165z M5.625,19.89H5.019l-1.236-1.701l1.252-1.725h0.584l1.248,1.719L5.625,19.89z"/>
	<path fill="#1D1D1B" d="M61.999,28.356l-2.463-3.389l-0.02,0.014v-0.029H57.2v0.031l-0.013-0.009l-2.463,3.389l-0.016,0.012
		l0.004,0.006l-0.004,0.005l0.016,0.013l2.463,3.389l0.013-0.01v0.01h2.316v-0.021l0.02,0.014l0.531-0.73l0.568,0.783l1.38-1.002
		L61.121,29.6l0.878-1.208l0.017-0.013l-0.004-0.005l0.004-0.005L61.999,28.356z M58.057,30.083l-1.237-1.702l1.253-1.724h0.584
		l1.248,1.717l-1.241,1.709H58.057z"/>
	<polygon fill="#1D1D1B" points="76.353,18.777 77.886,18.777 77.886,17.072 76.353,17.072 76.353,16.211 77.886,16.211 
		77.886,14.506 75.109,14.506 75.109,14.536 74.647,14.536 74.647,21.344 76.353,21.344 	"/>
	<polygon fill="#1D1D1B" points="87.827,18.854 89.361,18.854 89.361,21.42 91.065,21.42 91.065,14.613 89.361,14.613 
		89.361,17.149 87.827,17.149 87.827,14.613 86.122,14.613 86.122,21.42 87.827,21.42 	"/>
	<path fill="#1D1D1B" d="M50.261,21.419h3.116v-0.036l1.418-1.951l-0.079-0.057l-1.564-2.154l1.173-1.615l-1.379-1.002l-0.017,0.023
		h-2.668h-1.705v1.705v5.099h1.705V21.419z M52.669,19.457l-0.187,0.257H51.34l0.758-1.044L52.669,19.457z M51.69,16.331
		l-1.43,1.967v-1.967H51.69z"/>
	<path fill="#1D1D1B" d="M24.945,14.764l-0.017,0.023h-2.668h-1.704v1.705v5.099h1.704v-0.231l1.253-1.725l1.422,1.956l1.38-1.002
		l-1.748-2.405l1.757-2.416L24.945,14.764z M22.261,16.492h1.43l-1.43,1.967V16.492z"/>
	<polygon fill="#1D1D1B" points="113.415,24.802 111.957,26.81 110.498,24.802 109.119,25.804 110.903,28.26 109.079,30.771 
		110.458,31.772 111.957,29.71 113.376,31.663 114.755,30.661 113.01,28.26 114.795,25.804 	"/>
	<polygon fill="#1D1D1B" points="11.98,18.577 10.682,16.788 10.682,14.598 8.978,14.598 8.978,17.333 9.062,17.333 9.002,17.376 
		11.974,21.466 12.02,21.433 13.685,21.433 13.685,14.63 11.98,14.63 	"/>
	<polygon fill="#1D1D1B" points="19.248,9.645 20.547,11.433 20.547,13.624 22.252,13.624 22.252,10.889 22.167,10.889 
		22.228,10.845 19.256,6.754 19.21,6.788 17.543,6.788 17.543,8.558 16.245,6.77 16.198,6.804 14.532,6.804 14.532,13.607 
		16.237,13.607 16.237,9.66 17.536,11.447 17.536,13.64 19.241,13.64 19.241,13.592 19.248,13.592 	"/>
	<polygon fill="#1D1D1B" points="124.875,21.526 124.875,14.723 123.17,14.723 123.17,16.492 121.871,14.705 121.825,14.738 
		120.159,14.738 120.159,21.542 121.864,21.542 121.864,17.595 123.17,19.393 123.17,21.526 	"/>
	<path fill="#1D1D1B" d="M9.52,13.614l0.017-0.022h2.667h1.705v-1.705v-5.1h-1.705v0.232L8.14,12.612L9.52,13.614z M12.203,11.887
		h-1.429l1.429-1.968V11.887z"/>
</g>
<g id="Layer_2" display="none">
	<rect x="18.395" y="21.979" display="inline" fill="#1D1D1B" width="1.819" height="2.92"/>
	
		<rect x="9.755" y="-0.759" transform="matrix(0.5879 0.809 -0.809 0.5879 7.5183 -7.195)" display="inline" fill="#1D1D1B" width="2.131" height="9.08"/>
	<rect x="3.333" y="0.042" display="inline" fill="#1D1D1B" width="19.83" height="2.131"/>
	<rect x="2.235" y="26.176" display="inline" fill="#1D1D1B" width="9.213" height="2.131"/>
	<rect x="5.776" y="0.042" display="inline" fill="#1D1D1B" width="2.131" height="27.784"/>
	<rect x="15.182" y="21.963" display="inline" fill="#1D1D1B" width="1.819" height="2.918"/>
	
		<rect x="16.618" y="17.57" transform="matrix(-0.8089 -0.5879 0.5879 -0.8089 19.7917 46.9676)" display="inline" fill="#1D1D1B" width="1.821" height="5.394"/>
	<rect x="18.387" y="17.586" display="inline" fill="#1D1D1B" width="1.819" height="7.262"/>
	<polygon display="inline" fill="#1D1D1B" points="13.032,13.268 18.352,13.268 18.352,16.9 20.171,16.9 20.171,13.268 
		25.496,13.268 25.496,11.449 13.032,11.449 	"/>
	<path display="inline" fill="#1D1D1B" d="M23.146,7.193l-2.628-3.617l-0.021,0.016V3.56h-2.472v0.033l-0.014-0.01L15.383,7.2
		l-0.017,0.013l0.004,0.005l-0.004,0.006l0.017,0.013l2.628,3.617l0.014-0.01v0.01h2.472v-0.022l0.021,0.015l2.628-3.617
		l0.018-0.013l-0.005-0.006l0.005-0.006L23.146,7.193z M19.585,9.035h-0.647l-1.319-1.816l1.337-1.839h0.623l1.332,1.833
		L19.585,9.035z"/>
</g>
<g id="Layer_3" display="none">
	<rect x="18.395" y="21.979" display="inline" fill="#1D1D1B" width="1.819" height="2.92"/>
	
		<rect x="9.755" y="-0.759" transform="matrix(0.5879 0.809 -0.809 0.5879 7.5183 -7.195)" display="inline" fill="#1D1D1B" width="2.131" height="9.08"/>
	<rect x="3.333" y="0.042" display="inline" fill="#1D1D1B" width="19.83" height="2.131"/>
	<rect x="2.235" y="26.176" display="inline" fill="#1D1D1B" width="9.213" height="2.131"/>
	<rect x="5.776" y="0.042" display="inline" fill="#1D1D1B" width="2.131" height="27.784"/>
	<rect x="15.182" y="21.963" display="inline" fill="#1D1D1B" width="1.819" height="2.918"/>
	
		<rect x="16.618" y="17.57" transform="matrix(-0.8089 -0.5879 0.5879 -0.8089 19.7917 46.9676)" display="inline" fill="#1D1D1B" width="1.821" height="5.394"/>
	<rect x="18.387" y="17.586" display="inline" fill="#1D1D1B" width="1.819" height="7.262"/>
	<polygon display="inline" fill="#1D1D1B" points="13.032,13.268 18.352,13.268 18.352,16.9 20.171,16.9 20.171,13.268 
		25.496,13.268 25.496,11.449 13.032,11.449 	"/>
	<path display="inline" fill="#1D1D1B" d="M23.146,7.193l-2.628-3.617l-0.021,0.016V3.56h-2.472v0.033l-0.014-0.01L15.383,7.2
		l-0.017,0.013l0.004,0.005l-0.004,0.006l0.017,0.013l2.628,3.617l0.014-0.01v0.01h2.472v-0.022l0.021,0.015l2.628-3.617
		l0.018-0.013l-0.005-0.006l0.005-0.006L23.146,7.193z M19.585,9.035h-0.647l-1.319-1.816l1.337-1.839h0.623l1.332,1.833
		L19.585,9.035z"/>
</g>
</svg>
