<?xml version="1.0" encoding="utf-8"?>
<!-- Generator: Adobe Illustrator 16.0.4, SVG Export Plug-In . SVG Version: 6.00 Build 0)  -->
<!DOCTYPE svg PUBLIC "-//W3C//DTD SVG 1.1//EN" "http://www.w3.org/Graphics/SVG/1.1/DTD/svg11.dtd">
<svg version="1.1" xmlns="http://www.w3.org/2000/svg" xmlns:xlink="http://www.w3.org/1999/xlink" x="0px" y="0px" width="28.35px"
	 height="28.35px" viewBox="0 0 28.35 28.35" enable-background="new 0 0 28.35 28.35" xml:space="preserve">
<g id="Layer_1">
	<rect x="2.235" y="26.176" fill="#1D1D1B" width="9.213" height="2.131"/>
	<rect x="2.235" y="26.176" fill="#1D1D1B" width="9.213" height="2.131"/>
	<rect x="5.776" y="0.042" fill="#1D1D1B" width="2.131" height="27.784"/>
	
		<rect x="9.755" y="-0.759" transform="matrix(0.5879 0.809 -0.809 0.5879 7.5183 -7.195)" fill="#1D1D1B" width="2.131" height="9.08"/>
	<rect x="2.235" y="26.176" fill="#1D1D1B" width="9.213" height="2.131"/>
	<rect x="5.776" y="0.042" fill="#1D1D1B" width="2.131" height="27.784"/>
	
		<rect x="9.755" y="-0.759" transform="matrix(0.5879 0.809 -0.809 0.5879 7.5183 -7.195)" fill="#1D1D1B" width="2.131" height="9.08"/>
	<rect x="3.333" y="0.042" fill="#1D1D1B" width="19.83" height="2.131"/>
	<rect x="2.235" y="26.176" fill="#1D1D1B" width="9.213" height="2.131"/>
	<rect x="5.776" y="0.042" fill="#1D1D1B" width="2.131" height="27.784"/>
</g>
<g id="Layer_2" display="none">
	<rect x="18.395" y="21.979" display="inline" fill="#1D1D1B" width="1.819" height="2.92"/>
	
		<rect x="9.755" y="-0.759" transform="matrix(0.5879 0.809 -0.809 0.5879 7.5183 -7.195)" display="inline" fill="#1D1D1B" width="2.131" height="9.08"/>
	<rect x="3.333" y="0.042" display="inline" fill="#1D1D1B" width="19.83" height="2.131"/>
	<rect x="2.235" y="26.176" display="inline" fill="#1D1D1B" width="9.213" height="2.131"/>
	<rect x="5.776" y="0.042" display="inline" fill="#1D1D1B" width="2.131" height="27.784"/>
	<rect x="15.182" y="21.963" display="inline" fill="#1D1D1B" width="1.819" height="2.918"/>
	
		<rect x="16.618" y="17.57" transform="matrix(-0.8089 -0.5879 0.5879 -0.8089 19.7917 46.9676)" display="inline" fill="#1D1D1B" width="1.821" height="5.394"/>
	<rect x="18.387" y="17.586" display="inline" fill="#1D1D1B" width="1.819" height="7.262"/>
	<polygon display="inline" fill="#1D1D1B" points="13.032,13.268 18.352,13.268 18.352,16.9 20.171,16.9 20.171,13.268 
		25.496,13.268 25.496,11.449 13.032,11.449 	"/>
	<path display="inline" fill="#1D1D1B" d="M23.146,7.193l-2.628-3.617l-0.021,0.016V3.56h-2.472v0.033l-0.014-0.01L15.383,7.2
		l-0.017,0.013l0.004,0.005l-0.004,0.006l0.017,0.013l2.628,3.617l0.014-0.01v0.01h2.472v-0.022l0.021,0.015l2.628-3.617
		l0.018-0.013l-0.005-0.006l0.005-0.006L23.146,7.193z M19.585,9.035h-0.647l-1.319-1.816l1.337-1.839h0.623l1.332,1.833
		L19.585,9.035z"/>
</g>
<g id="Layer_3" display="none">
	<rect x="18.395" y="21.979" display="inline" fill="#1D1D1B" width="1.819" height="2.92"/>
	
		<rect x="9.755" y="-0.759" transform="matrix(0.5879 0.809 -0.809 0.5879 7.5183 -7.195)" display="inline" fill="#1D1D1B" width="2.131" height="9.08"/>
	<rect x="3.333" y="0.042" display="inline" fill="#1D1D1B" width="19.83" height="2.131"/>
	<rect x="2.235" y="26.176" display="inline" fill="#1D1D1B" width="9.213" height="2.131"/>
	<rect x="5.776" y="0.042" display="inline" fill="#1D1D1B" width="2.131" height="27.784"/>
	<rect x="15.182" y="21.963" display="inline" fill="#1D1D1B" width="1.819" height="2.918"/>
	
		<rect x="16.618" y="17.57" transform="matrix(-0.8089 -0.5879 0.5879 -0.8089 19.7917 46.9676)" display="inline" fill="#1D1D1B" width="1.821" height="5.394"/>
	<rect x="18.387" y="17.586" display="inline" fill="#1D1D1B" width="1.819" height="7.262"/>
	<polygon display="inline" fill="#1D1D1B" points="13.032,13.268 18.352,13.268 18.352,16.9 20.171,16.9 20.171,13.268 
		25.496,13.268 25.496,11.449 13.032,11.449 	"/>
	<path display="inline" fill="#1D1D1B" d="M23.146,7.193l-2.628-3.617l-0.021,0.016V3.56h-2.472v0.033l-0.014-0.01L15.383,7.2
		l-0.017,0.013l0.004,0.005l-0.004,0.006l0.017,0.013l2.628,3.617l0.014-0.01v0.01h2.472v-0.022l0.021,0.015l2.628-3.617
		l0.018-0.013l-0.005-0.006l0.005-0.006L23.146,7.193z M19.585,9.035h-0.647l-1.319-1.816l1.337-1.839h0.623l1.332,1.833
		L19.585,9.035z"/>
</g>
</svg>
