<?xml version="1.0" encoding="utf-8"?>
<!-- Generator: Adobe Illustrator 16.0.4, SVG Export Plug-In . SVG Version: 6.00 Build 0)  -->
<!DOCTYPE svg PUBLIC "-//W3C//DTD SVG 1.1//EN" "http://www.w3.org/Graphics/SVG/1.1/DTD/svg11.dtd">
<svg version="1.1" id="Layer_1" xmlns="http://www.w3.org/2000/svg" xmlns:xlink="http://www.w3.org/1999/xlink" x="0px" y="0px"
	 width="16.808px" height="24.148px" viewBox="5.679 12.076 16.808 24.148" enable-background="new 5.679 12.076 16.808 24.148"
	 xml:space="preserve">
<polygon fill="#231F20" points="22.448,18.233 22.472,18.202 14.096,12.117 14.067,12.076 14.054,12.085 14.041,12.076 
	14.011,12.117 5.636,18.202 5.667,18.244 5.667,23.015 9.879,23.015 9.879,20.326 14.054,17.292 18.274,20.359 18.274,23.015 
	22.487,23.015 22.487,18.233 "/>
<g>
	<path fill="#231F20" d="M22.598,24.479H5.762v4.217h5.584l-5.667,4.117l2.479,3.411l5.946-4.32l5.948,4.32l2.478-3.411
		l-5.667-4.117h5.735V24.479z"/>
	<polygon fill="#231F20" points="20.275,25.947 19.822,26.569 20.27,27.185 20.488,27.185 20.937,26.567 20.486,25.947 	"/>
</g>
<g>
	<rect x="11.405" y="25.284" fill="#FFFFFF" width="0.639" height="2.549"/>
	<polygon fill="#FFFFFF" points="16.595,25.284 15.956,25.284 15.956,27.833 16.277,27.833 16.595,27.833 17.169,27.833 
		17.169,27.197 16.595,27.197 	"/>
	<polygon fill="#FFFFFF" points="9.46,25.923 10.033,25.923 10.033,27.845 10.671,27.845 10.671,25.923 11.245,25.923 
		11.245,25.284 9.46,25.284 	"/>
	<polygon fill="#FFFFFF" points="15.274,25.283 14.662,26.126 14.662,25.284 14.024,25.284 14.024,27.833 14.662,27.833 
		14.662,26.992 15.274,27.833 15.789,27.459 15.137,26.56 15.789,25.659 	"/>
	<polygon fill="#FFFFFF" points="12.99,25.284 12.203,25.284 12.72,25.659 	"/>
	<polygon fill="#FFFFFF" points="13.134,25.29 13.129,25.287 12.207,26.557 12.2,26.561 12.201,26.563 12.2,26.565 12.207,26.569 
		13.129,27.839 13.135,27.833 13.858,27.833 13.858,27.197 13.45,27.197 12.99,26.563 13.455,25.923 13.858,25.923 13.858,25.284 
		13.134,25.284 	"/>
	<polygon fill="#FFFFFF" points="18.662,25.923 18.662,25.284 17.938,25.284 17.938,25.29 17.933,25.287 17.012,26.557 
		17.005,26.561 17.006,26.563 17.005,26.565 17.012,26.569 17.933,27.839 17.939,27.833 18.662,27.833 18.662,27.197 18.255,27.197 
		18.036,26.893 18.269,26.893 18.269,26.254 18.019,26.254 18.26,25.923 	"/>
</g>
</svg>
