<?xml version="1.0" encoding="utf-8"?>
<!-- Generator: Adobe Illustrator 16.0.4, SVG Export Plug-In . SVG Version: 6.00 Build 0)  -->
<!DOCTYPE svg PUBLIC "-//W3C//DTD SVG 1.1//EN" "http://www.w3.org/Graphics/SVG/1.1/DTD/svg11.dtd">
<svg version="1.1" id="Layer_1" xmlns="http://www.w3.org/2000/svg" xmlns:xlink="http://www.w3.org/1999/xlink" x="0px" y="0px"
	 width="28.35px" height="28.35px" viewBox="0 0 28.35 28.35" enable-background="new 0 0 28.35 28.35" xml:space="preserve">
<g>
	<path fill="#1D1D1B" d="M25.963,1.756H2.354L1.537,2.573v0.318V13.17v13.012l0.817,0.817h23.609l0.816-0.817V15.417V2.891V2.573
		L25.963,1.756z M3.171,25.365V13.697l6.313-2.862l0.053-0.026l8.055-4.385l2.489,5.937l-0.3-0.239l-1.043,0.023l-2.505,2.168
		l1.07,1.235l1.384-1.199l1.216-0.044l1.389,1.103l0.044-0.057l0.944,2.256l0.756-0.172l0.001,0.674v-0.674l0.812-0.188l-0.356-6.59
		l1.651,4.893v9.813H3.171z"/>
	<polygon fill="#1D1D1B" points="8.986,14.396 10.643,15.531 11.567,14.184 9.006,12.429 8.082,12.429 5.521,14.184 6.445,15.531 
		8.101,14.396 	"/>
	<polygon fill="#1D1D1B" points="15.845,19.7 14.327,20.502 12.764,19.77 12.004,19.805 9.469,21.288 9.608,22.763 14.074,24.356 
		14.633,24.352 19.101,22.69 19.226,21.217 16.636,19.718 	"/>
</g>
</svg>
