<?xml version="1.0" encoding="utf-8"?>
<!-- Generator: Adobe Illustrator 16.0.4, SVG Export Plug-In . SVG Version: 6.00 Build 0)  -->
<!DOCTYPE svg PUBLIC "-//W3C//DTD SVG 1.1//EN" "http://www.w3.org/Graphics/SVG/1.1/DTD/svg11.dtd">
<svg version="1.1" id="Layer_1" xmlns="http://www.w3.org/2000/svg" xmlns:xlink="http://www.w3.org/1999/xlink" x="0px" y="0px"
	 width="28.35px" height="28.35px" viewBox="0 0 28.35 28.35" enable-background="new 0 0 28.35 28.35" xml:space="preserve">
<g>
	<path fill="#1D1D1B" d="M26.019,1.756H2.356L1.537,2.575v0.318v14.436v8.911l0.819,0.818h23.663l0.82-0.818V11.082V2.893V2.575
		L26.019,1.756z M3.175,25.42v-7.936L6.307,9.54l8.458-1.4l10.437-1.315v4.258v1.539l-3.896-1.412l-0.559,1.541l4.454,1.613V25.42
		H3.175z"/>
	
		<rect x="7.293" y="12.078" transform="matrix(0.9795 -0.2015 0.2015 0.9795 -2.3464 2.738)" fill="#1D1D1B" width="9.971" height="1.637"/>
	<polygon fill="#1D1D1B" points="12.849,18.38 12.406,19.918 15.711,21.699 16.117,23.906 16.924,24.576 20.471,24.576 
		21.18,24.168 23.433,20.278 22.779,19.051 	"/>
</g>
</svg>
