<?xml version="1.0" encoding="utf-8"?>
<!-- Generator: Adobe Illustrator 16.0.4, SVG Export Plug-In . SVG Version: 6.00 Build 0)  -->
<!DOCTYPE svg PUBLIC "-//W3C//DTD SVG 1.1//EN" "http://www.w3.org/Graphics/SVG/1.1/DTD/svg11.dtd">
<svg version="1.1" id="Layer_1" xmlns="http://www.w3.org/2000/svg" xmlns:xlink="http://www.w3.org/1999/xlink" x="0px" y="0px"
	 width="28.35px" height="28.35px" viewBox="0 0 28.35 28.35" enable-background="new 0 0 28.35 28.35" xml:space="preserve">
<g>
	<rect x="17.036" y="7.83" fill="#1D1D1B" width="4.037" height="1.637"/>
	<rect x="7.217" y="7.83" fill="#1D1D1B" width="4.039" height="1.637"/>
	<path fill="#1D1D1B" d="M26,1.753H2.355L1.537,2.572v8.5v14.294v0.851l0.817,0.817H26l0.818-0.817v-0.851V10.102v-7.53L26,1.753z
		 M25.182,3.389v6.57l-3.115,8.685l-2.998,0.016l2.866-1.68l-0.137-1.478l-7.345-2.619l-0.561,0.003l-7.343,2.731l-0.125,1.476
		l2.87,1.664l-3.56,0.055l-2.561-7.87V3.389H25.182z M14.198,18.138l1.151,0.541l-1.402,0.006l-0.808,0.013L14.198,18.138z"/>
</g>
</svg>
